<svg id="Camada_1" data-name="Camada 1" xmlns="http://www.w3.org/2000/svg" viewBox="0 0 595.28 172.93"><defs><style>.cls-1{fill:#1d1d1b;}</style></defs><path class="cls-1" d="M77,135.33q-13.58,0-22.05-6.25a22.68,22.68,0,0,1-9.57-16.55H64.93c.36,1.72,1.61,3.25,3.74,4.61a14.15,14.15,0,0,0,7.8,2,12.57,12.57,0,0,0,7.19-1.77,5.14,5.14,0,0,0,2.58-4.34,4.91,4.91,0,0,0-2.1-4.14q-2.1-1.56-7.67-2.37l-9.91-1.36q-10.32-1.5-15.2-6.93t-4.89-14a20.89,20.89,0,0,1,3.87-12.55,25.19,25.19,0,0,1,10.45-8.28,36.06,36.06,0,0,1,14.73-2.92A35,35,0,0,1,91,63.66,26.71,26.71,0,0,1,101,71.81a22.64,22.64,0,0,1,4.34,10.86H86.11a7,7,0,0,0-3.4-4.35,13.32,13.32,0,0,0-6.92-1.63,11.13,11.13,0,0,0-6.72,1.84,5.45,5.45,0,0,0-2.51,4.54,4.11,4.11,0,0,0,2.17,3.74,20.3,20.3,0,0,0,7.2,2l9.77,1.36q10.45,1.37,15.61,7.47a21.77,21.77,0,0,1,5.16,14.52,20.27,20.27,0,0,1-3.87,12.42,24.62,24.62,0,0,1-10.52,8A38.85,38.85,0,0,1,77,135.33Z"/><path class="cls-1" d="M146.78,133.84q-11,0-17-6t-6-17.51V80.22H112.85V62.58H123.7V42a103.17,103.17,0,0,0,10.39-1.09,96.58,96.58,0,0,0,10.25-2.17V62.58h12.89V80.22H144.34v27.83c0,2.71.67,4.77,2,6.17a7.36,7.36,0,0,0,5.57,2.11h5.29v17.51Z"/><path class="cls-1" d="M202.29,135.33a36.55,36.55,0,0,1-18.73-4.75,33.59,33.59,0,0,1-12.76-13.24,40,40,0,0,1-4.61-19.47,39.67,39.67,0,0,1,4.61-19.41,33.74,33.74,0,0,1,12.76-13.17,39.58,39.58,0,0,1,37.6,0,33.74,33.74,0,0,1,12.76,13.17,39.78,39.78,0,0,1,4.61,19.41,40.13,40.13,0,0,1-4.61,19.47,33.59,33.59,0,0,1-12.76,13.24A36.84,36.84,0,0,1,202.29,135.33Zm0-18.05a13.62,13.62,0,0,0,11.06-5.23q4.28-5.22,4.28-14.18t-4.28-14.12a14.29,14.29,0,0,0-22,0q-4.28,5.16-4.27,14.12t4.27,14.18A13.5,13.5,0,0,0,202.29,117.28Z"/><path class="cls-1" d="M282.64,135.33a35.55,35.55,0,0,1-18.8-4.82,32.66,32.66,0,0,1-12.28-13.23,41.68,41.68,0,0,1-4.35-19.41,41.42,41.42,0,0,1,4.35-19.28,32.72,32.72,0,0,1,12.28-13.23,35.55,35.55,0,0,1,18.8-4.82,33.33,33.33,0,0,1,15.95,3.6,29.67,29.67,0,0,1,10.79,9.64,29.34,29.34,0,0,1,4.88,13.36h-20.9A10.5,10.5,0,0,0,290,81c-1.77-1.58-4.32-2.38-7.67-2.38a12.38,12.38,0,0,0-10.25,5.23q-4,5.22-4,14.05,0,9.09,4,14.25a12.42,12.42,0,0,0,10.25,5.16q5,0,7.8-2.18a9.29,9.29,0,0,0,3.46-6h20.63a28.74,28.74,0,0,1-15.67,22.74A34.52,34.52,0,0,1,282.64,135.33Z"/><path class="cls-1" d="M326.34,133.29V34.89H347v55l23.49-27.28h24.29L365.57,95.83l30.68,37.46H370.73L347,103.16v30.13Z"/><path class="cls-1" d="M416.47,135.33a13,13,0,1,1,9.23-3.8A12.57,12.57,0,0,1,416.47,135.33Z"/><path class="cls-1" d="M454.61,55.66a12.29,12.29,0,0,1-12.22-12.22,11.7,11.7,0,0,1,3.6-8.69,11.87,11.87,0,0,1,8.62-3.53,12.05,12.05,0,0,1,8.75,3.53,12.2,12.2,0,0,1,0,17.31A11.92,11.92,0,0,1,454.61,55.66Zm-10.32,77.63V62.58h20.63v70.71Z"/><path class="cls-1" d="M513.65,135.33a36.55,36.55,0,0,1-18.73-4.75,33.53,33.53,0,0,1-12.76-13.24,40,40,0,0,1-4.62-19.47,39.68,39.68,0,0,1,4.62-19.41,33.67,33.67,0,0,1,12.76-13.17,39.56,39.56,0,0,1,37.59,0,33.67,33.67,0,0,1,12.76,13.17,39.68,39.68,0,0,1,4.62,19.41,40,40,0,0,1-4.62,19.47,33.53,33.53,0,0,1-12.76,13.24A36.82,36.82,0,0,1,513.65,135.33Zm0-18.05a13.62,13.62,0,0,0,11.06-5.23Q529,106.83,529,97.87t-4.27-14.12a13.7,13.7,0,0,0-11.06-5.16,13.56,13.56,0,0,0-10.93,5.16q-4.28,5.16-4.27,14.12t4.27,14.18A13.48,13.48,0,0,0,513.65,117.28Z"/></svg>